<svg width="20" height="21" viewBox="0 0 20 21" fill="none" xmlns="http://www.w3.org/2000/svg">
<path fill-rule="evenodd" clip-rule="evenodd" d="M20 10.2219C20 9.66961 19.5523 9.2219 19 9.2219H12.1111C11.5588 9.2219 11.1111 8.77418 11.1111 8.2219V1.33301C11.1111 0.780724 10.6634 0.333008 10.1111 0.333008H9.88889C9.33661 0.333008 8.88889 0.780723 8.88889 1.33301V8.2219C8.88889 8.77418 8.44117 9.2219 7.88889 9.2219H1C0.447716 9.2219 0 9.66961 0 10.2219V10.4441C0 10.9964 0.447715 11.4441 1 11.4441H7.88889C8.44117 11.4441 8.88889 11.8918 8.88889 12.4441V19.333C8.88889 19.8853 9.33661 20.333 9.88889 20.333H10.1111C10.6634 20.333 11.1111 19.8853 11.1111 19.333V12.4441C11.1111 11.8918 11.5588 11.4441 12.1111 11.4441H19C19.5523 11.4441 20 10.9964 20 10.4441V10.2219Z" fill="white"/>
</svg>
