<svg width="44" height="43" viewBox="0 0 44 43" fill="none" xmlns="http://www.w3.org/2000/svg">
<rect x="43.5" y="43" width="43" height="43" rx="10" transform="rotate(-180 43.5 43)" fill="#ff9a9a"/>
<path d="M12.0973 21.8082C12.0973 22.2359 12.2672 22.646 12.5696 22.9484C12.872 23.2508 13.2822 23.4207 13.7098 23.4207L26.4808 23.4207L22.2453 27.6562C21.9605 27.9619 21.8054 28.3662 21.8128 28.7839C21.8202 29.2017 21.9894 29.6002 22.2848 29.8957C22.5803 30.1911 22.9788 30.3603 23.3966 30.3677C23.8143 30.3751 24.2186 30.22 24.5243 29.9352L31.5118 22.9477C31.8138 22.6453 31.9834 22.2355 31.9834 21.8082C31.9834 21.3809 31.8138 20.971 31.5118 20.6687L24.5243 13.6812C24.3767 13.5228 24.1987 13.3957 24.0009 13.3076C23.8031 13.2194 23.5896 13.172 23.373 13.1682C23.1565 13.1644 22.9415 13.2042 22.7407 13.2853C22.5399 13.3664 22.3575 13.4871 22.2044 13.6403C22.0513 13.7934 21.9306 13.9758 21.8495 14.1766C21.7684 14.3773 21.7285 14.5924 21.7323 14.8089C21.7362 15.0254 21.7836 15.2389 21.8717 15.4367C21.9598 15.6345 22.0869 15.8126 22.2453 15.9602L26.4808 20.1957L13.7098 20.1957C12.8197 20.1957 12.0973 20.9181 12.0973 21.8082Z" fill="#ffffff"/>
</svg>
