<svg width="44" height="43" viewBox="0 0 44 43" fill="none" xmlns="http://www.w3.org/2000/svg">
<rect x="0.5" width="43" height="43" rx="10" fill="#ff9a9a"/>
<path d="M31.9027 21.1918C31.9027 20.7641 31.7328 20.354 31.4304 20.0516C31.128 19.7492 30.7178 19.5793 30.2902 19.5793L17.5192 19.5793L21.7547 15.3438C22.0395 15.0381 22.1946 14.6338 22.1872 14.2161C22.1798 13.7983 22.0106 13.3998 21.7152 13.1043C21.4197 12.8089 21.0212 12.6396 20.6034 12.6323C20.1857 12.6249 19.7814 12.78 19.4757 13.0648L12.4882 20.0523C12.1862 20.3547 12.0166 20.7645 12.0166 21.1918C12.0166 21.6191 12.1862 22.029 12.4882 22.3313L19.4757 29.3188C19.6233 29.4772 19.8013 29.6043 19.9991 29.6924C20.1969 29.7806 20.4104 29.828 20.627 29.8318C20.8435 29.8356 21.0585 29.7958 21.2593 29.7147C21.4601 29.6336 21.6425 29.5129 21.7956 29.3597C21.9487 29.2066 22.0694 29.0242 22.1505 28.8234C22.2316 28.6227 22.2715 28.4076 22.2677 28.1911C22.2638 27.9746 22.2164 27.761 22.1283 27.5633C22.0402 27.3655 21.9131 27.1874 21.7547 27.0398L17.5192 22.8043L30.2902 22.8043C31.1803 22.8043 31.9027 22.0819 31.9027 21.1918Z" fill="#ffffff"/>
</svg>
