<svg width="43" height="43" viewBox="0 0 43 43" fill="none" xmlns="http://www.w3.org/2000/svg">
<rect width="43" height="43" rx="10" fill="#F8F8F8"/>
<path d="M31.4027 21.1918C31.4027 20.7641 31.2328 20.354 30.9304 20.0516C30.628 19.7492 30.2178 19.5793 29.7902 19.5793L17.0192 19.5793L21.2547 15.3438C21.5395 15.0381 21.6946 14.6338 21.6872 14.2161C21.6798 13.7983 21.5106 13.3998 21.2152 13.1043C20.9197 12.8089 20.5212 12.6396 20.1034 12.6323C19.6857 12.6249 19.2814 12.78 18.9757 13.0648L11.9882 20.0523C11.6862 20.3547 11.5166 20.7645 11.5166 21.1918C11.5166 21.6191 11.6862 22.029 11.9882 22.3313L18.9757 29.3188C19.1233 29.4772 19.3013 29.6043 19.4991 29.6924C19.6969 29.7806 19.9104 29.828 20.127 29.8318C20.3435 29.8356 20.5585 29.7958 20.7593 29.7147C20.9601 29.6336 21.1425 29.5129 21.2956 29.3597C21.4487 29.2066 21.5694 29.0242 21.6505 28.8234C21.7316 28.6227 21.7715 28.4076 21.7677 28.1911C21.7638 27.9746 21.7164 27.761 21.6283 27.5633C21.5402 27.3655 21.4131 27.1874 21.2547 27.0398L17.0192 22.8043L29.7902 22.8043C30.6803 22.8043 31.4027 22.0819 31.4027 21.1918Z" fill="#A0A0A0"/>
</svg>
