<svg width="43" height="43" viewBox="0 0 43 43" fill="none" xmlns="http://www.w3.org/2000/svg">
<rect x="43" y="43" width="43" height="43" rx="10" transform="rotate(-180 43 43)" fill="#F8F8F8"/>
<path d="M11.5973 21.8082C11.5973 22.2359 11.7672 22.646 12.0696 22.9484C12.372 23.2508 12.7822 23.4207 13.2098 23.4207L25.9808 23.4207L21.7453 27.6562C21.4605 27.9619 21.3054 28.3662 21.3128 28.7839C21.3202 29.2017 21.4894 29.6002 21.7848 29.8957C22.0803 30.1911 22.4788 30.3603 22.8966 30.3677C23.3143 30.3751 23.7186 30.22 24.0243 29.9352L31.0118 22.9477C31.3138 22.6453 31.4834 22.2355 31.4834 21.8082C31.4834 21.3809 31.3138 20.971 31.0118 20.6687L24.0243 13.6812C23.8767 13.5228 23.6987 13.3957 23.5009 13.3076C23.3031 13.2194 23.0896 13.172 22.873 13.1682C22.6565 13.1644 22.4415 13.2042 22.2407 13.2853C22.0399 13.3664 21.8575 13.4871 21.7044 13.6403C21.5513 13.7934 21.4306 13.9758 21.3495 14.1766C21.2684 14.3773 21.2285 14.5924 21.2323 14.8089C21.2362 15.0254 21.2836 15.2389 21.3717 15.4367C21.4598 15.6345 21.5869 15.8126 21.7453 15.9602L25.9808 20.1957L13.2098 20.1957C12.3197 20.1957 11.5973 20.9181 11.5973 21.8082Z" fill="#A0A0A0"/>
</svg>
