<svg width="18" height="18" viewBox="0 0 18 18" fill="none" xmlns="http://www.w3.org/2000/svg">
<path d="M16.0832 13.6781C16.0832 13.819 16.0272 13.9541 15.9276 14.0538C15.8279 14.1534 15.6928 14.2094 15.5519 14.2094H11.9394C11.8211 14.6506 11.5605 15.0404 11.1981 15.3185C10.8357 15.5965 10.3916 15.7472 9.93484 15.7472C9.47804 15.7472 9.03401 15.5965 8.67158 15.3185C8.30915 15.0404 8.04858 14.6506 7.93025 14.2094H2.44775C2.30686 14.2094 2.17173 14.1534 2.0721 14.0538C1.97247 13.9541 1.9165 13.819 1.9165 13.6781C1.9165 13.5372 1.97247 13.4021 2.0721 13.3025C2.17173 13.2028 2.30686 13.1469 2.44775 13.1469H7.93025C8.04858 12.7057 8.30915 12.3158 8.67158 12.0378C9.03401 11.7597 9.47804 11.609 9.93484 11.609C10.3916 11.609 10.8357 11.7597 11.1981 12.0378C11.5605 12.3158 11.8211 12.7057 11.9394 13.1469H15.5519C15.6928 13.1469 15.8279 13.2028 15.9276 13.3025C16.0272 13.4021 16.0832 13.5372 16.0832 13.6781ZM16.0832 4.32103C16.0832 4.46193 16.0272 4.59705 15.9276 4.69668C15.8279 4.79631 15.6928 4.85228 15.5519 4.85228H13.8165C13.6982 5.29349 13.4376 5.68333 13.0752 5.96137C12.7127 6.23941 12.2687 6.39011 11.8119 6.39011C11.3551 6.39011 10.9111 6.23941 10.5487 5.96137C10.1862 5.68333 9.92566 5.29349 9.80734 4.85228H2.44775C2.37799 4.85228 2.30891 4.83854 2.24445 4.81184C2.18 4.78515 2.12143 4.74601 2.0721 4.69668C2.02277 4.64735 1.98364 4.58879 1.95694 4.52433C1.93025 4.45988 1.9165 4.3908 1.9165 4.32103C1.9165 4.25127 1.93025 4.18219 1.95694 4.11773C1.98364 4.05328 2.02277 3.99471 2.0721 3.94538C2.12143 3.89605 2.18 3.85692 2.24445 3.83022C2.30891 3.80352 2.37799 3.78978 2.44775 3.78978H9.80734C9.92566 3.34858 10.1862 2.95874 10.5487 2.6807C10.9111 2.40266 11.3551 2.25195 11.8119 2.25195C12.2687 2.25195 12.7127 2.40266 13.0752 2.6807C13.4376 2.95874 13.6982 3.34858 13.8165 3.78978H15.5519C15.6219 3.78883 15.6915 3.80192 15.7563 3.82828C15.8212 3.85464 15.8802 3.89374 15.9297 3.94326C15.9792 3.99278 16.0183 4.05173 16.0447 4.11661C16.071 4.18149 16.0841 4.251 16.0832 4.32103ZM16.0832 8.99603C16.0841 9.06606 16.071 9.13557 16.0447 9.20046C16.0183 9.26534 15.9792 9.32428 15.9297 9.37381C15.8802 9.42333 15.8212 9.46242 15.7563 9.48878C15.6915 9.51514 15.6219 9.52824 15.5519 9.52728H7.26442C7.1461 9.96849 6.88552 10.3583 6.52309 10.6364C6.16067 10.9144 5.71663 11.0651 5.25984 11.0651C4.80304 11.0651 4.35901 10.9144 3.99658 10.6364C3.63415 10.3583 3.37358 9.96849 3.25525 9.52728H2.44775C2.30686 9.52728 2.17173 9.47131 2.0721 9.37168C1.97247 9.27205 1.9165 9.13693 1.9165 8.99603C1.9165 8.85514 1.97247 8.72001 2.0721 8.62038C2.17173 8.52075 2.30686 8.46478 2.44775 8.46478H3.25525C3.37358 8.02358 3.63415 7.63373 3.99658 7.3557C4.35901 7.07766 4.80304 6.92695 5.25984 6.92695C5.71663 6.92695 6.16067 7.07766 6.52309 7.3557C6.88552 7.63373 7.1461 8.02358 7.26442 8.46478H15.5519C15.6928 8.46478 15.8279 8.52075 15.9276 8.62038C16.0272 8.72001 16.0832 8.85514 16.0832 8.99603Z" fill="#ffffff"/>
</svg>
