<svg width="15" height="16" viewBox="0 0 15 16" fill="none" xmlns="http://www.w3.org/2000/svg">
<path opacity="0.5" d="M8.02 13.7782C9.97375 13.387 12.5 11.9813 12.5 8.34695C12.5 5.04008 10.0794 2.83758 8.33875 1.8257C7.95188 1.6007 7.5 1.89633 7.5 2.3432V3.4857C7.5 4.38695 7.12125 6.03195 6.06875 6.71633C5.53125 7.0657 4.95 6.54258 4.885 5.90508L4.83125 5.38133C4.76875 4.77258 4.14875 4.4032 3.6625 4.77445C2.78813 5.44008 1.875 6.60882 1.875 8.34632C1.875 12.7907 5.18062 13.9026 6.83312 13.9026C6.92979 13.9026 7.03062 13.8995 7.13562 13.8932C7.41437 13.8582 7.13562 13.9551 8.02 13.7776" fill="#FF4A4A"/>
<path d="M5 11.6797C5 13.3172 6.31937 13.8235 7.13562 13.8935C7.41437 13.8585 7.13562 13.9554 8.02 13.7779C8.66937 13.5485 9.375 12.9597 9.375 11.6797C9.375 10.8691 8.86312 10.3685 8.4625 10.1341C8.34 10.0622 8.1975 10.1529 8.18687 10.2941C8.15188 10.7429 7.72062 11.1004 7.4275 10.7591C7.16812 10.4579 7.05875 10.0172 7.05875 9.73537V9.36662C7.05875 9.14537 6.83562 8.99787 6.64437 9.11162C5.93437 9.53224 5 10.3985 5 11.6797Z" fill="#FF4A4A"/>
</svg>
