<svg width="15" height="15" viewBox="0 0 15 15" fill="none" xmlns="http://www.w3.org/2000/svg">
<path opacity="0.5" d="M8.02 13.6256C9.97375 13.2344 12.5 11.8287 12.5 8.19436C12.5 4.88749 10.0794 2.68499 8.33875 1.67311C7.95188 1.44811 7.5 1.74374 7.5 2.19061V3.33311C7.5 4.23436 7.12125 5.87936 6.06875 6.56374C5.53125 6.91311 4.95 6.38999 4.885 5.75249L4.83125 5.22874C4.76875 4.61999 4.14875 4.25061 3.6625 4.62186C2.78813 5.28749 1.875 6.45624 1.875 8.19374C1.875 12.6381 5.18062 13.75 6.83312 13.75C6.92979 13.75 7.03062 13.7469 7.13562 13.7406C7.41437 13.7056 7.13562 13.8025 8.02 13.625" fill="#F8F8F8"/>
<path d="M5 11.5275C5 13.165 6.31937 13.6713 7.13562 13.7413C7.41437 13.7063 7.13562 13.8031 8.02 13.6256C8.66937 13.3963 9.375 12.8075 9.375 11.5275C9.375 10.7169 8.86312 10.2163 8.4625 9.98189C8.34 9.91002 8.1975 10.0006 8.18687 10.1419C8.15188 10.5906 7.72062 10.9481 7.4275 10.6069C7.16812 10.3056 7.05875 9.86502 7.05875 9.58314V9.21439C7.05875 8.99314 6.83562 8.84564 6.64437 8.95939C5.93437 9.38002 5 10.2463 5 11.5275Z" fill="#F8F8F8"/>
</svg>
