<svg width="40" height="40" viewBox="0 0 40 40" fill="none" xmlns="http://www.w3.org/2000/svg">
<path opacity="0.5" d="M16.6668 33.3337H23.3335C29.6185 33.3337 32.7618 33.3337 34.7135 31.3803C36.6652 29.427 36.6668 26.2853 36.6668 20.0003C36.6668 19.2637 36.6635 17.3203 36.6602 16.667H3.33351C3.33018 17.3203 3.33351 19.2637 3.33351 20.0003C3.33351 26.2853 3.33351 29.4287 5.28518 31.3803C7.23685 33.332 10.3835 33.3337 16.6668 33.3337Z" fill="#3AA4E7"/>
<path d="M16.658 6.66699H23.3413C29.643 6.66699 32.7947 6.66699 34.7513 8.52699C36.1613 9.86533 36.5563 11.7937 36.6663 15.0003V16.667H3.33301V15.0003C3.44301 11.792 3.83801 9.86699 5.24801 8.52699C7.20467 6.66699 10.3563 6.66699 16.658 6.66699ZM20.833 25.417C20.5015 25.417 20.1835 25.5487 19.9491 25.7831C19.7147 26.0175 19.583 26.3355 19.583 26.667C19.583 26.9985 19.7147 27.3165 19.9491 27.5509C20.1835 27.7853 20.5015 27.917 20.833 27.917H23.333C23.6645 27.917 23.9825 27.7853 24.2169 27.5509C24.4513 27.3165 24.583 26.9985 24.583 26.667C24.583 26.3355 24.4513 26.0175 24.2169 25.7831C23.9825 25.5487 23.6645 25.417 23.333 25.417H20.833ZM9.99967 25.417C9.66815 25.417 9.35021 25.5487 9.11579 25.7831C8.88137 26.0175 8.74967 26.3355 8.74967 26.667C8.74967 26.9985 8.88137 27.3165 9.11579 27.5509C9.35021 27.7853 9.66815 27.917 9.99967 27.917H16.6663C16.9979 27.917 17.3158 27.7853 17.5502 27.5509C17.7846 27.3165 17.9163 26.9985 17.9163 26.667C17.9163 26.3355 17.7846 26.0175 17.5502 25.7831C17.3158 25.5487 16.9979 25.417 16.6663 25.417H9.99967Z" fill="#3AA4E7"/>
</svg>
