<svg width="41" height="40" viewBox="0 0 41 40" fill="none" xmlns="http://www.w3.org/2000/svg">
<path d="M5.5 16.6667C5.5 13.5233 5.5 11.9533 6.47667 10.9767C7.45333 10 9.02333 10 12.1667 10H28.8333C31.9767 10 33.5467 10 34.5233 10.9767C35.5 11.9533 35.5 13.5233 35.5 16.6667V23.3333C35.5 26.4767 35.5 28.0467 34.5233 29.0233C33.5467 30 31.9767 30 28.8333 30H12.1667C9.02333 30 7.45333 30 6.47667 29.0233C5.5 28.0467 5.5 26.4767 5.5 23.3333V16.6667Z" fill="#3AA4E7" fill-opacity="0.25"/>
<path d="M20.5003 23.3337C22.3413 23.3337 23.8337 21.8413 23.8337 20.0003C23.8337 18.1594 22.3413 16.667 20.5003 16.667C18.6594 16.667 17.167 18.1594 17.167 20.0003C17.167 21.8413 18.6594 23.3337 20.5003 23.3337Z" fill="#3AA4E7"/>
<path d="M12.9997 13.333H9.66634C9.2061 13.333 8.83301 13.7061 8.83301 14.1663C8.83301 14.6266 9.2061 14.9997 9.66634 14.9997H12.9997C13.4599 14.9997 13.833 14.6266 13.833 14.1663C13.833 13.7061 13.4599 13.333 12.9997 13.333Z" fill="#3AA4E7"/>
<path d="M31.3337 25H28.0003C27.5401 25 27.167 25.3731 27.167 25.8333C27.167 26.2936 27.5401 26.6667 28.0003 26.6667H31.3337C31.7939 26.6667 32.167 26.2936 32.167 25.8333C32.167 25.3731 31.7939 25 31.3337 25Z" fill="#3AA4E7"/>
</svg>
