<svg width="19" height="19" viewBox="0 0 19 19" fill="none" xmlns="http://www.w3.org/2000/svg">
<rect width="19" height="19" rx="9.5" fill="white"/>
<path d="M13.1101 13.7751L10.1176 10.7826C9.8801 10.9726 9.60697 11.123 9.29822 11.2338C8.98947 11.3447 8.66093 11.4001 8.3126 11.4001C7.44968 11.4001 6.71945 11.1012 6.1219 10.5033C5.52435 9.90543 5.22541 9.1752 5.2251 8.3126C5.22478 7.45 5.52371 6.71976 6.1219 6.1219C6.72008 5.52403 7.45031 5.2251 8.3126 5.2251C9.17488 5.2251 9.90527 5.52403 10.5038 6.1219C11.1023 6.71976 11.401 7.45 11.4001 8.3126C11.4001 8.66093 11.3447 8.98947 11.2338 9.29822C11.123 9.60697 10.9726 9.8801 10.7826 10.1176L13.7751 13.1101L13.1101 13.7751ZM8.3126 10.4501C8.90635 10.4501 9.41111 10.2424 9.8269 9.8269C10.2427 9.41143 10.4504 8.90666 10.4501 8.3126C10.4498 7.71853 10.242 7.21392 9.8269 6.79877C9.41175 6.38362 8.90698 6.17573 8.3126 6.1751C7.71821 6.17446 7.21361 6.38236 6.79877 6.79877C6.38394 7.21519 6.17605 7.7198 6.1751 8.3126C6.17415 8.9054 6.38204 9.41016 6.79877 9.8269C7.21551 10.2436 7.72011 10.4514 8.3126 10.4501Z" fill="#A0A0A0"/>
</svg>
