<svg width="24" height="24" viewBox="0 0 24 24" fill="none" xmlns="http://www.w3.org/2000/svg">
<path opacity="0.5" d="M12.832 21.8011C15.958 21.1751 20 18.9261 20 13.1111C20 7.82005 16.127 4.29605 13.342 2.67705C12.723 2.31705 12 2.79005 12 3.50505V5.33305C12 6.77505 11.394 9.40705 9.71 10.5021C8.85 11.0611 7.92 10.2241 7.816 9.20405L7.73 8.36605C7.63 7.39205 6.638 6.80105 5.86 7.39505C4.461 8.46005 3 10.3301 3 13.1101C3 20.2211 8.289 22.0001 10.933 22.0001C11.0877 22.0001 11.249 21.9951 11.417 21.9851C11.863 21.9291 11.417 22.0841 12.832 21.8001" fill="#FF4A4A"/>
<path d="M8 18.4441C8 21.0641 10.111 21.8741 11.417 21.9861C11.863 21.9301 11.417 22.0851 12.832 21.8011C13.871 21.4341 15 20.4921 15 18.4441C15 17.1471 14.181 16.3461 13.54 15.9711C13.344 15.8561 13.116 16.0011 13.099 16.2271C13.043 16.9451 12.353 17.5171 11.884 16.9711C11.469 16.4891 11.294 15.7841 11.294 15.3331V14.7431C11.294 14.3891 10.937 14.1531 10.631 14.3351C9.495 15.0081 8 16.3941 8 18.4441Z" fill="#FF4A4A"/>
</svg>
