<svg width="26" height="27" viewBox="0 0 26 27" fill="none" xmlns="http://www.w3.org/2000/svg">
<path d="M22.9027 13.1918C22.9027 12.7641 22.7328 12.354 22.4304 12.0516C22.128 11.7492 21.7178 11.5793 21.2902 11.5793L8.51918 11.5793L12.7547 7.3438C13.0395 7.03813 13.1946 6.63383 13.1872 6.21608C13.1798 5.79834 13.0106 5.39976 12.7152 5.10432C12.4197 4.80888 12.0212 4.63965 11.6034 4.63228C11.1857 4.62491 10.7814 4.77997 10.4757 5.06481L3.48818 12.0523C3.18621 12.3547 3.0166 12.7645 3.0166 13.1918C3.0166 13.6191 3.18621 14.029 3.48818 14.3313L10.4757 21.3188C10.6233 21.4772 10.8013 21.6043 10.9991 21.6924C11.1969 21.7806 11.4104 21.828 11.627 21.8318C11.8435 21.8356 12.0585 21.7958 12.2593 21.7147C12.4601 21.6336 12.6425 21.5129 12.7956 21.3597C12.9487 21.2066 13.0694 21.0242 13.1505 20.8234C13.2316 20.6227 13.2715 20.4076 13.2677 20.1911C13.2638 19.9746 13.2164 19.761 13.1283 19.5633C13.0402 19.3655 12.9131 19.1874 12.7547 19.0398L8.51918 14.8043L21.2902 14.8043C22.1803 14.8043 22.9027 14.0819 22.9027 13.1918Z" fill="#A0A0A0"/>
</svg>
