<svg width="26" height="27" viewBox="0 0 26 27" fill="#ff9a9a" xmlns="http://www.w3.org/2000/svg">
<path d="M3.09732 13.8082C3.09732 14.2359 3.2672 14.646 3.56961 14.9484C3.87201 15.2508 4.28215 15.4207 4.70982 15.4207L17.4808 15.4207L13.2453 19.6562C12.9605 19.9619 12.8054 20.3662 12.8128 20.7839C12.8202 21.2017 12.9894 21.6002 13.2848 21.8957C13.5803 22.1911 13.9788 22.3603 14.3966 22.3677C14.8143 22.3751 15.2186 22.22 15.5243 21.9352L22.5118 14.9477C22.8138 14.6453 22.9834 14.2355 22.9834 13.8082C22.9834 13.3809 22.8138 12.971 22.5118 12.6687L15.5243 5.68119C15.3767 5.52276 15.1987 5.39569 15.0009 5.30756C14.8031 5.21943 14.5896 5.17204 14.373 5.16822C14.1565 5.1644 13.9415 5.20423 13.7407 5.28533C13.5399 5.36643 13.3575 5.48714 13.2044 5.64026C13.0513 5.79338 12.9306 5.97577 12.8495 6.17656C12.7684 6.37734 12.7285 6.5924 12.7323 6.80891C12.7362 7.02543 12.7836 7.23895 12.8717 7.43675C12.9598 7.63455 13.0869 7.81257 13.2453 7.96019L17.4808 12.1957L4.70982 12.1957C3.81972 12.1957 3.09732 12.9181 3.09732 13.8082Z" fill="#ffffff"/>
</svg>
