<svg width="43" height="43" viewBox="0 0 43 43" fill="none" xmlns="http://www.w3.org/2000/svg">
<rect width="43" height="43" rx="10" fill="#ff9a9a"/>
<path d="M31.4027 21.1921C31.4027 20.7644 31.2328 20.3542 30.9304 20.0518C30.628 19.7494 30.2178 19.5795 29.7902 19.5795L17.0192 19.5796L21.2547 15.344C21.5395 15.0384 21.6946 14.6341 21.6872 14.2163C21.6798 13.7986 21.5106 13.4 21.2152 13.1046C20.9197 12.8091 20.5212 12.6399 20.1034 12.6325C19.6857 12.6252 19.2814 12.7802 18.9757 13.065L11.9882 20.0526C11.6862 20.3549 11.5166 20.7647 11.5166 21.1921C11.5166 21.6194 11.6862 22.0292 11.9882 22.3316L18.9757 29.3191C19.1233 29.4775 19.3013 29.6045 19.4991 29.6927C19.6969 29.7808 19.9104 29.8282 20.127 29.832C20.3435 29.8358 20.5585 29.796 20.7593 29.7149C20.9601 29.6338 21.1425 29.5131 21.2956 29.36C21.4487 29.2069 21.5694 29.0245 21.6505 28.8237C21.7316 28.6229 21.7715 28.4078 21.7677 28.1913C21.7638 27.9748 21.7164 27.7613 21.6283 27.5635C21.5402 27.3657 21.4131 27.1877 21.2547 27.0401L17.0192 22.8046L29.7902 22.8046C30.6803 22.8046 31.4027 22.0822 31.4027 21.1921Z" fill="#ffffff"/>
</svg>
