<svg width="43" height="43" viewBox="0 0 43 43" fill="none" xmlns="http://www.w3.org/2000/svg">
<rect x="43" y="43" width="43" height="43" rx="10" transform="rotate(-180 43 43)" fill="white"/>
<path d="M11.5973 21.8079C11.5973 22.2356 11.7672 22.6458 12.0696 22.9482C12.372 23.2506 12.7822 23.4204 13.2098 23.4204L25.9808 23.4204L21.7453 27.656C21.4605 27.9616 21.3054 28.3659 21.3128 28.7837C21.3202 29.2014 21.4894 29.6 21.7848 29.8954C22.0803 30.1909 22.4788 30.3601 22.8966 30.3675C23.3143 30.3748 23.7186 30.2198 24.0243 29.9349L31.0118 22.9474C31.3138 22.6451 31.4834 22.2353 31.4834 21.8079C31.4834 21.3806 31.3138 20.9708 31.0118 20.6684L24.0243 13.6809C23.8767 13.5225 23.6987 13.3955 23.5009 13.3073C23.3031 13.2192 23.0896 13.1718 22.873 13.168C22.6565 13.1642 22.4415 13.204 22.2407 13.2851C22.0399 13.3662 21.8575 13.4869 21.7044 13.64C21.5513 13.7931 21.4306 13.9755 21.3495 14.1763C21.2684 14.3771 21.2285 14.5922 21.2323 14.8087C21.2362 15.0252 21.2836 15.2387 21.3717 15.4365C21.4598 15.6343 21.5869 15.8123 21.7453 15.9599L25.9808 20.1954L13.2098 20.1954C12.3197 20.1954 11.5973 20.9178 11.5973 21.8079Z" fill="#A0A0A0"/>
</svg>
